<?xml version="1.0" encoding="UTF-8"?>
<svg width="29px" height="27px" viewBox="0 0 29 27" version="1.1" xmlns="http://www.w3.org/2000/svg" xmlns:xlink="http://www.w3.org/1999/xlink">
    <!-- Generator: Sketch 52.5 (67469) - http://www.bohemiancoding.com/sketch -->
    <title>Authorizer</title>
    <desc>Created with Sketch.</desc>
    <g id="Symbols" stroke="none" stroke-width="1" fill="none" fill-rule="evenodd">
        <g id="HEADER" transform="translate(-686.000000, -37.202920)" stroke="#FFFFFF">
            <g id="Authorizer" transform="translate(685.911720, 37.000000)">
                <g id="Group-3-Copy-4" transform="translate(14.820856, 12.057523)" stroke-linecap="round" stroke-linejoin="round" stroke-width="1.19999993">
                    <circle id="Oval" cx="6.72227452" cy="4.00975949" r="3.45801624"></circle>
                    <path d="M12.7707094,14.2324913 L12.7707094,13.5261099 C12.7707094,10.1801672 10.058318,7.46777573 6.71237528,7.46777573 C3.36643256,7.46777573 0.654041134,10.1801672 0.654041134,13.5261099 L0.654041134,14.2324913" id="Path"></path>
                </g>
                <g id="Group-3-Copy-2" transform="translate(0.936829, 0.431876)" fill="#FFFFFF" opacity="0.528041295" stroke-width="0.5">
                    <path d="M18.911542,0.47769017 C20.0912995,0.47769017 21.0416597,1.43549768 21.0416597,2.62450012 L21.0416597,9.23006918 C21.0416597,9.51080587 20.828648,9.72548686 20.5500941,9.72548686 C20.2715402,9.72548686 20.0585285,9.51080587 20.0585285,9.23006918 L20.0585285,2.62450012 C20.0585285,1.98045713 19.5505773,1.46852553 18.911542,1.46852553 L2.52602091,1.46852553 C1.88698559,1.46852553 1.37903444,1.98045713 1.37903444,2.62450012 L1.37903444,23.8356382 C1.37903444,24.4796812 1.88698559,24.9916128 2.52602091,24.9916128 L11.7019127,24.9916128 C11.9804666,24.9916128 12.1934784,25.2062938 12.1934784,25.4870305 C12.1934784,25.7677672 11.9804666,25.9824482 11.7019127,25.9824482 L2.52602091,25.9824482 C1.3462634,25.9824482 0.395903173,25.0246407 0.395903173,23.8356382 L0.395903173,2.62450012 C0.395903173,1.43549768 1.3462634,0.47769017 2.52602091,0.47769017 L18.911542,0.47769017 Z M3.34529697,6.42270233 C3.06674311,6.42270233 2.85373134,6.20802134 2.85373134,5.92728465 C2.85373134,5.64654796 3.06674311,5.43186697 3.34529697,5.43186697 L18.0922659,5.43186697 C18.3708198,5.43186697 18.5838316,5.64654796 18.5838316,5.92728465 C18.5838316,6.20802134 18.3708198,6.42270233 18.0922659,6.42270233 L3.34529697,6.42270233 Z M12.0296231,8.7346515 C12.308177,8.7346515 12.5211888,8.9493325 12.5211888,9.23006918 C12.5211888,9.51080587 12.308177,9.72548686 12.0296231,9.72548686 L3.34529697,9.72548686 C3.06674311,9.72548686 2.85373134,9.51080587 2.85373134,9.23006918 C2.85373134,8.9493325 3.06674311,8.7346515 3.34529697,8.7346515 L12.0296231,8.7346515 Z M3.34529697,12.037436 L8.75251893,12.037436 C9.03107278,12.037436 9.24408456,12.252117 9.24408456,12.5328537 C9.24408456,12.8135904 9.03107278,13.0282714 8.75251893,13.0282714 L3.34529697,13.0282714 C3.06674311,13.0282714 2.85373134,12.8135904 2.85373134,12.5328537 C2.85373134,12.252117 3.06674311,12.037436 3.34529697,12.037436 Z M12.0296231,13.0282714 C11.7581389,13.0282714 11.5380575,12.8064653 11.5380575,12.5328537 C11.5380575,12.2592421 11.7581389,12.037436 12.0296231,12.037436 C12.3011073,12.037436 12.5211888,12.2592421 12.5211888,12.5328537 C12.5211888,12.8064653 12.3011073,13.0282714 12.0296231,13.0282714 Z" id="Combined-Shape-Copy"></path>
                </g>
            </g>
        </g>
    </g>
</svg>