<?xml version="1.0" encoding="UTF-8"?>
<svg width="25px" height="23px" viewBox="0 0 25 23" version="1.1" xmlns="http://www.w3.org/2000/svg" xmlns:xlink="http://www.w3.org/1999/xlink">
    <!-- Generator: Sketch 52.5 (67469) - http://www.bohemiancoding.com/sketch -->
    <title>calendar icon</title>
    <desc>Created with Sketch.</desc>
    <g id="new" stroke="none" stroke-width="1" fill="none" fill-rule="evenodd">
        <g id="Certificate-issued" transform="translate(-1069.000000, -210.000000)" fill="#FFFFFF">
            <g id="Group-12" transform="translate(232.000000, 96.098312)">
                <g id="Group-10" transform="translate(691.699397, 100.000000)">
                    <path d="M166.758963,36.6319262 L147.893919,36.6319262 C146.454963,36.6319262 145.326963,35.2910566 145.326963,33.5797523 L145.326963,19.7411436 C145.326963,18.0298393 145.973919,16.8121001 147.413919,16.8121001 L153.674789,16.8121001 L153.674789,15.7686219 C153.674789,15.2072306 154.016006,14.728274 154.583658,14.728274 C155.152354,14.728274 155.612528,15.184274 155.612528,15.7456653 L155.761745,16.8121001 L158.89218,16.8121001 L159.041397,15.7456653 C159.041397,15.184274 159.501571,14.728274 160.069224,14.728274 C160.637919,14.728274 161.098093,15.184274 161.098093,15.7456653 L160.979137,16.8121001 L167.240006,16.8121001 C168.680006,16.8121001 169.326963,18.0298393 169.326963,19.7411436 L169.326963,33.5797523 C169.326963,35.2910566 168.198963,36.6319262 166.758963,36.6319262 L166.758963,36.6319262 Z M166.758963,18.7237523 L161.098093,18.7237523 L161.098093,19.1369697 C161.098093,19.698361 160.503311,19.9425349 159.935658,19.9425349 C159.366963,19.9425349 159.041397,19.698361 159.041397,19.1369697 L159.041397,18.7237523 L155.612528,18.7237523 L155.612528,19.1369697 C155.612528,19.698361 155.285919,19.9425349 154.718267,19.9425349 C154.149571,19.9425349 153.555832,19.698361 153.555832,19.1369697 L153.555832,18.7237523 L147.413919,18.8990566 C147.234441,18.8990566 147.383658,19.1098393 147.383658,19.7411436 L147.413919,22.0294914 L167.240006,22.0294914 L167.270267,19.7411436 C167.270267,19.1098393 166.939484,18.7237523 166.758963,18.7237523 L166.758963,18.7237523 Z M167.270267,33.5797523 L167.240006,24.116448 L147.413919,24.116448 L147.383658,33.5797523 C147.383658,34.2110566 147.234441,34.5512306 147.413919,34.5512306 L167.240006,34.5512306 C167.419484,34.5512306 167.270267,34.2110566 167.270267,33.5797523 L167.270267,33.5797523 Z M153.674789,31.4207958 L150.544354,31.4207958 L150.544354,28.290361 C150.544354,27.9157523 150.433745,27.2771436 150.812528,27.2771436 L154.012876,27.2771436 C154.391658,27.2771436 154.698441,27.5797523 154.698441,27.9554045 L154.698441,31.1192306 C154.698441,31.4938393 154.053571,31.4207958 153.674789,31.4207958 L153.674789,31.4207958 Z M150.544354,31.4207958 C150.165571,31.4207958 150.544354,31.1181871 150.544354,31.4207958 L150.544354,31.4207958 Z" id="calendar-icon"></path>
                </g>
            </g>
        </g>
    </g>
</svg>