<?xml version="1.0" encoding="UTF-8"?>
<svg width="29px" height="29px" viewBox="0 0 29 29" version="1.1" xmlns="http://www.w3.org/2000/svg" xmlns:xlink="http://www.w3.org/1999/xlink">
    <title>Certificate</title>
    <g id="new" stroke="none" stroke-width="1" fill="none" fill-rule="evenodd">
        <g id="Dashboard" transform="translate(-99.000000, -522.000000)" fill="#4A5B75" stroke="#4A5B75" stroke-width="0.2">
            <path d="M124.591257,522.186099 C126.191257,522.186099 127.480146,523.474988 127.480146,525.074988 L127.480146,533.963877 C127.480146,534.341655 127.191257,534.630543 126.81348,534.630543 C126.435702,534.630543 126.146813,534.341655 126.146813,533.963877 L126.146813,525.074988 C126.146813,524.208321 125.457924,523.519432 124.591257,523.519432 L102.369035,523.519432 C101.502368,523.519432 100.81348,524.208321 100.81348,525.074988 L100.81348,542.852766 C100.81348,543.719432 101.502368,544.408321 102.369035,544.408321 L114.81348,544.408321 C115.191257,544.408321 115.480146,544.69721 115.480146,545.074988 C115.480146,545.452766 115.191257,545.741655 114.81348,545.741655 L102.369035,545.741655 C100.769035,545.741655 99.4801462,544.452766 99.4801462,542.852766 L99.4801462,525.074988 C99.4801462,523.474988 100.769035,522.186099 102.369035,522.186099 L124.591257,522.186099 Z M126.81348,544.408321 C127.191257,544.408321 127.480146,544.69721 127.480146,545.074988 L127.480146,549.519432 C127.480146,549.763877 127.346813,549.986099 127.146813,550.09721 C127.035702,550.163877 126.924591,550.186099 126.81348,550.186099 C126.702368,550.186099 126.591257,550.163877 126.480146,550.09721 L123.035702,548.074988 L119.591257,550.09721 C119.391257,550.208321 119.124591,550.208321 118.924591,550.09721 C118.724591,549.986099 118.591257,549.763877 118.591257,549.519432 L118.591257,545.074988 C118.591257,544.69721 118.880146,544.408321 119.257924,544.408321 C119.635702,544.408321 119.924591,544.69721 119.924591,545.074988 L119.924591,548.363877 L122.702368,546.741655 C122.902368,546.608321 123.169035,546.608321 123.369035,546.741655 L126.146813,548.363877 L126.146813,545.074988 C126.146813,544.69721 126.435702,544.408321 126.81348,544.408321 Z M123.035702,536.408321 C121.324591,536.408321 119.924591,537.808321 119.924591,539.519432 C119.924591,541.230543 121.324591,542.630543 123.035702,542.630543 C124.746813,542.630543 126.146813,541.230543 126.146813,539.519432 C126.146813,537.808321 124.746813,536.408321 123.035702,536.408321 Z M123.035702,535.074988 C125.480146,535.074988 127.480146,537.074988 127.480146,539.519432 C127.480146,541.963877 125.480146,543.963877 123.035702,543.963877 C120.591257,543.963877 118.591257,541.963877 118.591257,539.519432 C118.591257,537.074988 120.591257,535.074988 123.035702,535.074988 Z M103.480146,530.186099 C103.102368,530.186099 102.81348,529.89721 102.81348,529.519432 C102.81348,529.141655 103.102368,528.852766 103.480146,528.852766 L123.480146,528.852766 C123.857924,528.852766 124.146813,529.141655 124.146813,529.519432 C124.146813,529.89721 123.857924,530.186099 123.480146,530.186099 L103.480146,530.186099 Z M115.257924,533.29721 C115.635702,533.29721 115.924591,533.586099 115.924591,533.963877 C115.924591,534.341655 115.635702,534.630543 115.257924,534.630543 L103.480146,534.630543 C103.102368,534.630543 102.81348,534.341655 102.81348,533.963877 C102.81348,533.586099 103.102368,533.29721 103.480146,533.29721 L115.257924,533.29721 Z M103.480146,537.741655 L110.81348,537.741655 C111.191257,537.741655 111.480146,538.030543 111.480146,538.408321 C111.480146,538.786099 111.191257,539.074988 110.81348,539.074988 L103.480146,539.074988 C103.102368,539.074988 102.81348,538.786099 102.81348,538.408321 C102.81348,538.030543 103.102368,537.741655 103.480146,537.741655 Z M115.257924,539.074988 C114.889734,539.074988 114.591257,538.776511 114.591257,538.408321 C114.591257,538.040131 114.889734,537.741655 115.257924,537.741655 C115.626114,537.741655 115.924591,538.040131 115.924591,538.408321 C115.924591,538.776511 115.626114,539.074988 115.257924,539.074988 Z" id="Combined-Shape"></path>
        </g>
    </g>
</svg>