<?xml version="1.0" encoding="UTF-8"?>
<svg width="81px" height="81px" viewBox="0 0 81 81" version="1.1" xmlns="http://www.w3.org/2000/svg" xmlns:xlink="http://www.w3.org/1999/xlink">
    <!-- Generator: Sketch 52.5 (67469) - http://www.bohemiancoding.com/sketch -->
    <title>ico 1</title>
    <desc>Created with Sketch.</desc>
    <g id="new" stroke="none" stroke-width="1" fill="none" fill-rule="evenodd">
        <g id="issue-cer-pop" transform="translate(-164.000000, -11.000000)">
            <g id="ico-1" transform="translate(164.000000, 11.000000)">
                <rect id="base-copy-5" fill="#415BF6" x="0.238808159" y="0.436200568" width="80" height="80" rx="40"></rect>
                <path d="M50.8875729,55.1285277 C50.2220312,55.1285277 49.682503,54.5865513 49.682503,53.9179896 C49.682503,53.2494278 50.2220312,52.7074514 50.8875729,52.7074514 C51.5531146,52.7074514 52.0926427,53.2494278 52.0926427,53.9179896 C52.0926427,54.5865513 51.5531146,55.1285277 50.8875729,55.1285277 Z M50.8875729,51.5017749 C50.4866441,51.5017749 50.1616272,51.1752831 50.1616272,50.7725351 L50.1616272,46.2998641 C50.1616272,45.8971161 50.4866441,45.5706243 50.8875729,45.5706243 C51.2885016,45.5706243 51.6135186,45.8971161 51.6135186,46.2998641 L51.6135186,50.7725351 C51.6135186,51.1752831 51.2885016,51.5017749 50.8875729,51.5017749 Z M52.1942751,39.6005808 L61.6460881,56.0473699 C61.9157314,56.5165249 61.9158237,57.0945262 61.6463301,57.563768 C61.3768365,58.0330099 60.8786722,58.3222511 60.3393858,58.3225982 L41.4357599,58.3225982 C40.8964735,58.3222511 40.3983092,58.0330099 40.1288156,57.563768 C39.859322,57.0945262 39.8594143,56.5165249 40.1290577,56.0473699 L49.5808706,39.6005808 C49.8508521,39.132223 50.3488041,38.8438524 50.8875729,38.8438524 C51.4263416,38.8438524 51.9242937,39.132223 52.1942751,39.6005808 Z M60.3926218,56.8349489 C60.402996,56.8168987 60.402996,56.7946599 60.3926218,56.7766097 L50.9359692,40.3298207 C50.92629,40.3298207 50.8391765,40.3298207 50.8391765,40.3298207 L41.3825239,56.7766097 C41.3721497,56.7946599 41.3721497,56.8168987 41.3825239,56.8349489 C41.3924837,56.8548667 41.4136972,56.8664901 41.4357599,56.8641185 L60.3393858,56.8641185 C60.3614486,56.8664901 60.382662,56.8548667 60.3926218,56.8349489 Z M51.8307253,22.549803 C53.9462188,22.549803 55.6503663,24.2673047 55.6503663,26.3993757 L55.6503663,38.244215 C55.6503663,38.7476206 55.2684022,39.1325779 54.7689107,39.1325779 C54.2694192,39.1325779 53.8874551,38.7476206 53.8874551,38.244215 L53.8874551,26.3993757 C53.8874551,25.2445039 52.9766176,24.3265289 51.8307253,24.3265289 L22.4488718,24.3265289 C21.3029795,24.3265289 20.3921421,25.2445039 20.3921421,26.3993757 L20.3921421,50.0890542 C20.3921421,51.243926 21.3029795,52.161901 22.4488718,52.161901 L38.9027098,52.161901 C39.4022013,52.161901 39.7841654,52.5468583 39.7841654,53.050264 C39.7841654,53.5536696 39.4022013,53.9386269 38.9027098,53.9386269 L22.4488718,53.9386269 C20.3333784,53.9386269 18.6292309,52.2211252 18.6292309,50.0890542 L18.6292309,26.3993757 C18.6292309,24.2673047 20.3333784,22.549803 22.4488718,22.549803 L51.8307253,22.549803 Z M23.9179645,33.2101583 C23.418473,33.2101583 23.0365089,32.825201 23.0365089,32.3217953 C23.0365089,31.8183897 23.418473,31.4334324 23.9179645,31.4334324 L50.3616327,31.4334324 C50.8611242,31.4334324 51.2430883,31.8183897 51.2430883,32.3217953 C51.2430883,32.825201 50.8611242,33.2101583 50.3616327,33.2101583 L23.9179645,33.2101583 Z M39.4903469,37.355852 C39.9898384,37.355852 40.3718025,37.7408093 40.3718025,38.244215 C40.3718025,38.7476206 39.9898384,39.1325779 39.4903469,39.1325779 L23.9179645,39.1325779 C23.418473,39.1325779 23.0365089,38.7476206 23.0365089,38.244215 C23.0365089,37.7408093 23.418473,37.355852 23.9179645,37.355852 L39.4903469,37.355852 Z M23.9179645,43.2782716 L33.6139762,43.2782716 C34.1134677,43.2782716 34.4954318,43.6632289 34.4954318,44.1666346 C34.4954318,44.6700402 34.1134677,45.0549975 33.6139762,45.0549975 L23.9179645,45.0549975 C23.418473,45.0549975 23.0365089,44.6700402 23.0365089,44.1666346 C23.0365089,43.6632289 23.418473,43.2782716 23.9179645,43.2782716 Z M39.4903469,45.0549975 C39.0035324,45.0549975 38.6088913,44.6572639 38.6088913,44.1666346 C38.6088913,43.6760053 39.0035324,43.2782716 39.4903469,43.2782716 C39.9771613,43.2782716 40.3718025,43.6760053 40.3718025,44.1666346 C40.3718025,44.6572639 39.9771613,45.0549975 39.4903469,45.0549975 Z" id="Combined-Shape" fill="#FFFFFF" fill-rule="nonzero"></path>
            </g>
        </g>
    </g>
</svg>