<?xml version="1.0" encoding="UTF-8"?>
<svg width="26px" height="27px" viewBox="0 0 35 31" version="1.1" xmlns="http://www.w3.org/2000/svg" xmlns:xlink="http://www.w3.org/1999/xlink">
    <!-- Generator: Sketch 52.5 (67469) - http://www.bohemiancoding.com/sketch -->
    <title>Issue New Certificate</title>
    <desc>Created with Sketch.</desc>
    <g id="Symbols" stroke="none" stroke-width="1" fill="none" fill-rule="evenodd">
        <g id="HEADER" transform="translate(-247.000000, -35.202920)" stroke="#FFFFFF">
            <g id="Group-6-Copy" transform="translate(232.898504, 25.236637)">
                <g id="Issue-New-Certificate" transform="translate(14.782569, 9.971887)">
                    <path d="M25.8400138,14.5937137 L25.8400138,29.499692" id="Line-Copy-2" stroke-width="1.94117647" stroke-linecap="round" stroke-linejoin="round" fill-rule="nonzero"></path>
                    <path d="M18.3470102,22.0467029 L33.3330173,22.0467029" id="Line-Copy-2" stroke-width="1.94117647" stroke-linecap="round" stroke-linejoin="round" fill-rule="nonzero"></path>
                    <path d="M23.7624232,0.600219484 C25.2447929,0.600219484 26.4389241,1.80370821 26.4389241,3.29769421 L26.4389241,11.5976164 C26.4389241,11.9503631 26.171274,12.2201106 25.82127,12.2201106 C25.4712661,12.2201106 25.203616,11.9503631 25.203616,11.5976164 L25.203616,3.29769421 C25.203616,2.48845179 24.5653735,1.84520782 23.7624232,1.84520782 L3.17395472,1.84520782 C2.37100445,1.84520782 1.73276193,2.48845179 1.73276193,3.29769421 L1.73276193,19.8975386 C1.73276193,20.7067811 2.37100445,21.350025 3.17395472,21.350025 L14.7034971,21.350025 C15.053501,21.350025 15.3211511,21.6197725 15.3211511,21.9725192 C15.3211511,22.3252659 15.053501,22.5950134 14.7034971,22.5950134 L3.17395472,22.5950134 C1.69158499,22.5950134 0.497453817,21.3915246 0.497453817,19.8975386 L0.497453817,3.29769421 C0.497453817,1.80370821 1.69158499,0.600219484 3.17395472,0.600219484 L23.7624232,0.600219484 Z M4.20337814,8.07014948 C3.85337418,8.07014948 3.58572409,7.80040201 3.58572409,7.44765531 C3.58572409,7.09490862 3.85337418,6.82516115 4.20337814,6.82516115 L22.7329998,6.82516115 C23.0830037,6.82516115 23.3506538,7.09490862 23.3506538,7.44765531 C23.3506538,7.80040201 23.0830037,8.07014948 22.7329998,8.07014948 L4.20337814,8.07014948 Z M15.1152664,10.9751223 C15.4652704,10.9751223 15.7329205,11.2448697 15.7329205,11.5976164 C15.7329205,11.9503631 15.4652704,12.2201106 15.1152664,12.2201106 L4.20337814,12.2201106 C3.85337418,12.2201106 3.58572409,11.9503631 3.58572409,11.5976164 C3.58572409,11.2448697 3.85337418,10.9751223 4.20337814,10.9751223 L15.1152664,10.9751223 Z M4.20337814,15.1250834 L10.9975727,15.1250834 C11.3475767,15.1250834 11.6152268,15.3948308 11.6152268,15.7475775 C11.6152268,16.1003242 11.3475767,16.3700717 10.9975727,16.3700717 L4.20337814,16.3700717 C3.85337418,16.3700717 3.58572409,16.1003242 3.58572409,15.7475775 C3.58572409,15.3948308 3.85337418,15.1250834 4.20337814,15.1250834 Z M15.1152664,16.3700717 C14.7741455,16.3700717 14.4976124,16.0913716 14.4976124,15.7475775 C14.4976124,15.4037835 14.7741455,15.1250834 15.1152664,15.1250834 C15.4563874,15.1250834 15.7329205,15.4037835 15.7329205,15.7475775 C15.7329205,16.0913716 15.4563874,16.3700717 15.1152664,16.3700717 Z" id="Combined-Shape-Copy" stroke-width="0.5" fill="#FFFFFF" opacity="0.528041295"></path>
                </g>
            </g>
        </g>
    </g>
</svg>