<?xml version="1.0" encoding="UTF-8"?>
<svg width="133px" height="54px" viewBox="0 0 133 54" version="1.1" xmlns="http://www.w3.org/2000/svg" xmlns:xlink="http://www.w3.org/1999/xlink">
    <!-- Generator: Sketch 52.5 (67469) - http://www.bohemiancoding.com/sketch -->
    <title>logo</title>
    <desc>Created with Sketch.</desc>
    <g id="Symbols" stroke="none" stroke-width="1" fill="none" fill-rule="evenodd">
        <g id="HEADER" transform="translate(-47.000000, -26.202920)">
            <g id="logo" transform="translate(46.480146, 26.000000)">
                <path d="M22.0712491,51.6768456 L1.53204853,16.1027646 C-0.303791528,12.9219645 1.99124854,8.94724435 5.66324865,8.94724435 L46.7413299,8.94724435 C50.41333,8.94724435 52.7083701,12.9219645 50.87189,16.1027646 L30.3333294,51.6768456 C28.4978093,54.8570057 23.9070892,54.8570057 22.0712491,51.6768456" id="Fill-3" fill="#FDFDFE" opacity="0.802176339"></path>
                <path d="M52.30389,29.706541 L16.729169,50.2457416 C13.5490089,52.0819016 9.57396877,49.7868616 9.57396877,46.1145415 L9.57396877,5.03646023 C9.57396877,1.36446012 13.5490089,-0.930579946 16.729169,0.905900109 L52.30389,21.4444607 C55.4840501,23.2806208 55.4840501,27.8703809 52.30389,29.706541" id="Fill-9" fill="#FDFDFE"></path>
                <path d="M24.3618732,25.8506049 C24.2914732,25.5840448 24.2249132,25.3181248 24.1625132,25.0557248 C23.7244332,23.2093248 23.4297132,21.2742847 23.2869932,19.3040447 C23.2101932,18.2342846 23.1769132,17.1466046 23.1884332,16.0659646 C23.7948332,17.3930046 24.2146732,18.7658046 24.4386732,20.1517247 C24.7401132,21.9850047 24.7145132,23.9002048 24.3618732,25.8506049 Z M29.7532334,28.0938049 C29.6575534,28.0992449 29.5813934,28.0829249 29.5189934,28.0458049 C29.4575534,28.0090049 29.4031534,27.9494849 29.3519534,27.8637249 C29.2415534,27.6816449 29.1695534,27.3875649 29.1631534,27.0941249 C29.1602734,26.9494849 29.1721134,26.8022849 29.1970734,26.6694849 C29.1996334,26.6531649 29.2037934,26.6368449 29.2069934,26.6198849 C29.2370734,26.6573249 29.2665134,26.6960449 29.2946734,26.7357249 C29.3727534,26.8454849 29.4450734,26.9677249 29.5087534,27.0998849 C29.6444334,27.3837249 29.7487534,27.7152449 29.8181934,28.0874049 C29.7938734,28.0902849 29.7733934,28.0925249 29.7532334,28.0938049 Z M35.1583535,22.2720447 L35.1381935,22.3104447 C34.3237935,23.5418048 33.3433135,24.9683648 32.2457134,26.2192449 C31.9583534,26.5440449 31.6940334,26.8192449 31.4383534,27.0611649 C31.4156334,27.0819649 31.3925934,27.1030849 31.3708334,27.1235649 C31.2233134,26.7046849 31.0409134,26.3366849 30.8140334,26.0026049 C30.7164334,25.8598849 30.6076334,25.7219648 30.4914734,25.5920448 C30.3477934,25.4330048 30.2213934,25.3133248 30.0777134,25.2045248 C29.9013934,25.0733248 29.6962734,24.9424448 29.3945134,24.8755648 C29.2207534,24.8390848 29.0325933,24.8384448 28.8665133,24.8755648 C28.6946733,24.9114048 28.5218733,24.9917248 28.3794733,25.1021248 C28.1237933,25.3027648 28.0002733,25.5251648 27.9132333,25.7168448 C27.8399533,25.8842049 27.7893933,26.0573249 27.7529133,26.2634049 C27.6988333,26.5779649 27.6927533,26.8976449 27.7340333,27.2413249 C27.7759533,27.5779649 27.8572333,27.8790849 27.9833133,28.1619649 C28.1433133,28.5200449 28.3519533,28.7942849 28.6201133,29.0003649 C28.7781933,29.1210049 28.9596333,29.213805 29.1439533,29.268525 C29.3209134,29.321645 29.5138734,29.343405 29.7045934,29.332525 C29.7740334,29.328365 29.8418734,29.320365 29.9125934,29.308845 C29.9045934,29.817965 29.8450734,30.334125 29.7353134,30.846765 C29.5945134,31.502765 29.3788334,32.097965 29.1151533,32.5670851 L29.0351533,32.7008451 C29.0082733,32.7405251 28.9813933,32.7798851 28.9525933,32.8176451 C28.8946733,32.8973251 28.8319533,32.9680451 28.7695533,33.0294851 C28.6265133,33.1677251 28.4687533,33.2573251 28.3125933,33.2890051 C28.1570733,33.3219651 27.9788333,33.2928451 27.8156333,33.2090051 C27.6764333,33.1376451 27.5394733,33.0310851 27.3983533,32.8829251 C27.3663533,32.8506051 27.3369133,32.8170051 27.3074733,32.7830851 C27.2783533,32.7498051 27.2303533,32.6912451 27.1897133,32.6390851 C27.1045933,32.5296451 27.0207533,32.415085 26.9423533,32.298605 C26.7913133,32.074605 26.6386733,31.822445 26.4898733,31.548525 C26.2348333,31.079725 25.9855533,30.550125 25.7295532,29.930285 C25.6053932,29.628845 25.4818732,29.313325 25.3605932,28.9907649 C25.5884332,28.1850049 25.7701932,27.3715649 25.9023533,26.5741249 C26.2847533,24.2768448 26.2591533,22.0307647 25.8255533,19.8976447 C25.4069932,17.8051646 24.5877932,15.7888446 23.3861932,13.9018045 C23.2847532,13.7600445 23.1618732,13.6816445 23.0396332,13.6816445 C22.7765932,13.6816445 22.5874732,14.0048445 22.4770732,14.6426045 L22.4722732,14.6678845 C22.4377131,14.8557245 22.4066731,15.0301245 22.3788331,15.2006845 C22.1407531,16.6378046 22.0053931,18.1104446 21.9762731,19.5776447 C21.9157931,22.5558848 22.2879531,25.4774848 23.0815532,28.2614849 C23.1813932,28.6122049 23.2914732,28.9702849 23.4082732,29.326125 C23.0709932,30.244845 22.6617132,31.174765 22.1919531,32.089005 C21.7237931,32.9994051 21.1945131,33.9005251 20.6178731,34.7667651 C20.3285931,35.2013251 20.0274731,35.6269251 19.7215531,36.0314052 C19.5660331,36.2387652 19.4063531,36.4426052 19.2489131,36.6378052 L19.006993,36.9312452 L18.718353,37.2611652 L20.3132331,38.6723652 L20.5129131,38.4307652 L20.9049131,37.9248452 C21.0671531,37.7069252 21.2329131,37.4784452 21.3954731,37.2435652 C21.7084331,36.7958852 22.0146731,36.3258052 22.3090731,35.8474052 C22.8924332,34.8966851 23.4239532,33.9110851 23.8876332,32.9184451 C24.0546732,32.5610051 24.2178732,32.192045 24.3724332,31.817965 C24.4581932,32.004205 24.5327532,32.159405 24.6076332,32.305965 C24.7871532,32.6598851 24.9669932,32.9766851 25.1577132,33.2749251 C25.2617132,33.4378051 25.3708332,33.5971651 25.4818732,33.7472451 C25.5887532,33.8899651 25.7001132,34.0352451 25.8844333,34.2410051 C26.2415533,34.6352451 26.6210733,34.9370051 27.0127533,35.1389251 C27.4527533,35.3683651 27.9346733,35.4730051 28.3794733,35.4374851 C28.8252333,35.4045251 29.2713134,35.2333251 29.6687534,34.9430851 C30.0169134,34.6906051 30.3333934,34.3491651 30.6095534,33.9280451 C30.6732334,33.8307651 30.7340334,33.7312451 30.7900334,33.6323651 C30.8469934,33.5302851 30.8837934,33.4589251 30.9289134,33.3699651 C31.0089134,33.2090051 31.0825134,33.0435651 31.1538734,32.8640451 C31.2818734,32.5414851 31.3877934,32.210925 31.4777134,31.853485 C31.6409134,31.201325 31.7333934,30.524845 31.7538734,29.843885 C31.7695534,29.298285 31.7356334,28.7670849 31.6556334,28.2640449 C31.6882734,28.2317249 31.7209134,28.1984449 31.7538734,28.1654849 C32.3650734,27.5283649 32.8121135,26.8845249 33.2037935,26.2829249 C33.9695535,25.0838848 34.4620335,24.0896448 34.7877935,23.4307648 C35.0569135,22.8755648 35.2127535,22.5325248 35.2620335,22.4189248 C35.2693935,22.4038847 35.2738735,22.3942847 35.2757935,22.3904447 L35.3506735,22.2717247 L35.1583535,22.2720447 Z" id="Fill-11" fill="#415BF6"></path>
                <text id="BelBooks" font-family="Graphik-Bold, Graphik" font-size="16.2917125" font-weight="bold" letter-spacing="0.0686585615" fill="#FDFDFE">
                    <tspan x="57.9801462" y="30.9056766">BelBooks</tspan>
                </text>
            </g>
        </g>
    </g>
</svg>