<?xml version="1.0" encoding="UTF-8"?>
<svg width="25px" height="27px" viewBox="0 0 32 27" version="1.1" xmlns="http://www.w3.org/2000/svg" xmlns:xlink="http://www.w3.org/1999/xlink">
    <!-- Generator: Sketch 52.5 (67469) - http://www.bohemiancoding.com/sketch -->
    <title>logout</title>
    <desc>Created with Sketch.</desc>
    <g id="Symbols" stroke="none" stroke-width="1" fill="none" fill-rule="evenodd">
        <g id="HEADER" transform="translate(-1355.000000, -37.202920)" fill="#FFFFFF" fill-rule="nonzero">
            <path d="M1380.26935,57.1790251 C1379.87883,57.5695494 1379.24566,57.5695494 1378.85514,57.1790251 C1378.46461,56.7885008 1378.46461,56.1553358 1378.85514,55.7648115 C1383.1509,51.4690443 1383.1509,44.5042295 1378.85514,40.2084623 C1374.55937,35.9126951 1367.59456,35.9126951 1363.29879,40.2084623 C1359.00302,44.5042295 1359.00302,51.4690443 1363.29879,55.7648115 C1363.68931,56.1553358 1363.68931,56.7885008 1363.29879,57.1790251 C1362.90826,57.5695494 1362.2751,57.5695494 1361.88457,57.1790251 C1356.80776,52.1022093 1356.80776,43.8710646 1361.88457,38.7942488 C1366.96139,33.717433 1375.19254,33.717433 1380.26935,38.7942488 C1385.34617,43.8710646 1385.34617,52.1022093 1380.26935,57.1790251 Z M1371.93579,42.5828861 L1377.76655,48.4879079 C1378.70766,49.4309407 1377.29599,50.84499 1376.35537,49.9019572 L1372.42523,45.9604422 C1372.23237,45.7670179 1372.07495,45.8309788 1372.07495,46.104627 L1372.07495,65.4867056 C1372.07495,66.0409221 1371.62813,66.4866369 1371.07695,66.4866369 C1370.52192,66.4866369 1370.07895,66.0389524 1370.07895,65.4867056 L1370.07895,46.104627 C1370.07895,45.8294812 1369.92212,45.7664251 1369.72866,45.9604422 L1365.79852,49.9019572 C1364.85741,50.84499 1363.44623,49.4309407 1364.38735,48.4879079 L1370.17984,42.5898715 C1370.66646,42.094385 1371.45149,42.0924134 1371.93579,42.5828861 Z" id="logout" transform="translate(1371.076963, 50.736637) rotate(90.000000) translate(-1371.076963, -50.736637) "></path>
        </g>
    </g>
</svg>