<?xml version="1.0" encoding="UTF-8"?>
<svg width="55px" height="57px" viewBox="0 0 55 57" version="1.1" xmlns="http://www.w3.org/2000/svg" xmlns:xlink="http://www.w3.org/1999/xlink">
    <!-- Generator: Sketch 52.5 (67469) - http://www.bohemiancoding.com/sketch -->
    <title>Group</title>
    <desc>Created with Sketch.</desc>
    <g id="new" stroke="none" stroke-width="1" fill="none" fill-rule="evenodd">
        <g id="Dashboard" transform="translate(-541.000000, -384.000000)">
            <g id="Group" transform="translate(541.000000, 384.000000)">
                <polygon id="Triangle-Copy" fill="#000000" fill-rule="nonzero" transform="translate(6.921099, 3.396104) scale(1, -1) rotate(90.000000) translate(-6.921099, -3.396104) " points="9.63072397 3.3961041 4.21147409 9.41187294 4.21147409 -2.61966474"></polygon>
                <path d="M23.7334974,5.78253651 L59.8643152,5.78253651 L59.8643152,53.7825365 L23.7334974,53.7825365 C19.6134384,53.7825365 15.7814484,51.6688808 13.583573,48.1840234 L6.01525625,36.1840234 C3.54848877,32.2728222 3.54848877,27.2922508 6.01525625,23.3810496 L13.583573,11.3810496 C15.7814484,7.89619223 19.6134384,5.78253651 23.7334974,5.78253651 Z" id="Rectangle-Copy-10" fill="#DB0303" fill-rule="nonzero" transform="translate(30.921099, 29.782537) scale(1, -1) rotate(90.000000) translate(-30.921099, -29.782537) "></path>
                <path d="M30.921099,43.588877 C21.4587842,43.588877 13.7882146,35.9177352 13.7882146,26.4554203 C13.7882146,16.9931055 21.4587842,9.32196361 30.921099,9.32196361 C40.3834139,9.32196361 48.0539835,16.9931055 48.0539835,26.4554203 C48.0539835,35.9177352 40.3834139,43.588877 30.921099,43.588877 Z M30.921099,37.2958101 C24.9340421,37.2958101 20.0804873,32.4422553 20.0804873,26.4556422 C20.0804873,20.4685853 24.9340421,15.6150305 30.921099,15.6150305 C36.9081559,15.6150305 41.7617107,20.4685853 41.7617107,26.4556422 C41.7617107,32.4422553 36.9081559,37.2958101 30.921099,37.2958101 Z M30.921099,39.8394423 C38.3129828,39.8394423 44.305395,33.8470301 44.305395,26.4556943 C44.305395,19.0638105 38.3129828,13.0713983 30.921099,13.0713983 C23.5292153,13.0713983 17.5368031,19.0638105 17.5368031,26.4556943 C17.5368031,33.8470301 23.5292153,39.8394423 30.921099,39.8394423 Z M30.921099,18.831223 L28.4445316,23.8509185 L22.9053188,24.6556948 L26.9127767,28.5620154 L25.9670996,34.0796176 L30.921099,31.4742513 L35.8750984,34.0796176 L34.9294213,28.5620154 L38.9368792,24.6556948 L33.3976665,23.8509185 L30.921099,18.831223 Z" id="Combined-Shape-Copy-6" fill="#FFFFFF"></path>
            </g>
        </g>
    </g>
</svg>