<?xml version="1.0" encoding="UTF-8"?>
<svg width="33px" height="32px" viewBox="0 0 33 32" version="1.1" xmlns="http://www.w3.org/2000/svg" xmlns:xlink="http://www.w3.org/1999/xlink">
    <!-- Generator: Sketch 52.5 (67469) - http://www.bohemiancoding.com/sketch -->
    <title>print</title>
    <desc>Created with Sketch.</desc>
    <g id="new" stroke="none" stroke-width="1" fill="none" fill-rule="evenodd">
        <g id="Print" transform="translate(-939.000000, -35.000000)" fill="#FFFFFF" fill-rule="nonzero" stroke="#FFFFFF" stroke-width="0.5">
            <path d="M944.51147,57.9731528 C943.275735,57.9738357 942.156777,57.4705268 941.352644,56.6626376 C940.547486,55.8554313 940.050324,54.7378398 940.050665,53.5123477 L940.050665,44.2929862 C940.050324,43.067494 940.547486,41.9499025 941.352644,41.1423548 C942.157119,40.3344655 943.276076,39.8314981 944.511812,39.8318396 L945.641696,39.8318396 L945.641696,37.8493354 C945.642037,36.480431 946.751092,35.3713759 948.119997,35.3710345 L962.990144,35.3710345 C964.359048,35.3713759 965.468103,36.480431 965.468445,37.8493354 L965.468445,39.8318396 L966.321065,39.8318396 C968.777854,39.8338883 970.780163,41.8361971 970.78187,44.2929862 L970.78187,53.5123477 C970.780163,55.9691368 968.777854,57.9714455 966.320382,57.9731528 L965.467762,57.9731528 L965.467762,63.6239384 C965.467421,64.9928429 964.358366,66.1018979 962.989461,66.1022394 L948.119655,66.1022394 C946.750751,66.1018979 945.641696,64.9928429 945.641354,63.6239384 L945.641354,57.9731528 L944.51147,57.9731528 Z M964.476851,63.6239384 L964.476851,53.7107347 C964.47651,53.2985951 964.310903,52.9301621 964.041151,52.659386 C963.770717,52.3892928 963.401942,52.2240273 962.989803,52.2236858 L948.119997,52.2236858 C947.707857,52.2240273 947.339424,52.3896343 947.068648,52.659386 C946.798555,52.9298206 946.633289,53.2985951 946.632948,53.7107347 L946.632948,63.6239384 C946.633289,64.0360781 946.798896,64.4045111 947.068648,64.6752871 C947.339083,64.9453803 947.707857,65.1106458 948.119997,65.1109873 L962.989803,65.1109873 C963.401942,65.1106458 963.770375,64.9450388 964.041151,64.6752871 C964.311244,64.4048525 964.47651,64.0360781 964.476851,63.6239384 Z M946.632948,37.8493354 L946.632948,39.8297909 L964.476851,39.8297909 L964.476851,37.8493354 C964.47651,37.4371958 964.310903,37.0687628 964.041151,36.7979868 C963.770717,36.5278936 963.401942,36.362628 962.989803,36.3622866 L948.119997,36.3622866 C947.707857,36.362628 947.339424,36.5282351 947.068648,36.7979868 C946.798555,37.0684214 946.633289,37.4371958 946.632948,37.8493354 Z M941.041917,44.2929862 L941.042259,44.2929862 L941.042259,53.5123477 C941.042259,54.4677467 941.427765,55.3326594 942.055023,55.9629905 C942.683305,56.5926388 943.546852,56.9819007 944.511812,56.9822421 L945.641696,56.9822421 L945.641696,53.7107347 C945.642037,52.3418302 946.751092,51.2327752 948.119997,51.2324337 L962.989461,51.2324337 C964.358366,51.2327752 965.467421,52.3418302 965.467762,53.7107347 L965.467762,56.9815592 L966.320382,56.9815592 C967.274074,56.9815592 968.139328,56.5922973 968.770342,55.9619661 C969.400673,55.3309521 969.789935,54.4656979 969.789935,53.5120062 L969.789935,44.2926447 C969.789935,43.338953 969.400673,42.4736988 968.770342,41.8426848 C968.139328,41.2123536 967.274074,40.8230917 966.320382,40.8230917 L964.972307,40.8230917 L946.137151,40.8230917 L944.51147,40.8230917 C943.546511,40.8237746 942.682964,41.2126951 942.054681,41.8423433 C941.427423,42.4726745 941.042259,43.3375872 941.041917,44.2929862 Z M960.016046,55.9411372 C960.289554,55.9411372 960.511502,56.1630848 960.511843,56.436934 C960.511843,56.7107832 960.289895,56.9327308 960.016046,56.9327308 L951.094095,56.9327308 C950.820245,56.9327308 950.598298,56.7107832 950.598298,56.436934 C950.598298,56.1630848 950.820245,55.9411372 951.094095,55.9411372 L960.016046,55.9411372 Z M955.674068,60.4022838 C955.947918,60.4022838 956.169865,60.6238899 956.170207,60.8980806 C956.170207,61.1719298 955.948259,61.3938773 955.67441,61.3938773 L951.094095,61.3938773 C950.820245,61.3938773 950.598298,61.1719298 950.598298,60.8980806 C950.598298,60.6242314 950.820245,60.4022838 951.094095,60.4022838 L955.674068,60.4022838 Z M965.32674,46.0784692 C964.818323,46.0784692 964.40617,45.6663158 964.40617,45.1578989 C964.40617,44.6494819 964.818323,44.2373286 965.32674,44.2373286 C965.835157,44.2373286 966.24731,44.6494819 966.24731,45.1578989 C966.24731,45.6663158 965.835157,46.0784692 965.32674,46.0784692 Z M961.062273,46.0784692 C960.553856,46.0784692 960.141703,45.6663158 960.141703,45.1578989 C960.141703,44.6494819 960.553856,44.2373286 961.062273,44.2373286 C961.57069,44.2373286 961.982843,44.6494819 961.982843,45.1578989 C961.982843,45.6663158 961.57069,46.0784692 961.062273,46.0784692 Z" id="print"></path>
        </g>
    </g>
</svg>