<?xml version="1.0" encoding="UTF-8"?>
<svg width="25px" height="22px" viewBox="0 0 25 22" version="1.1" xmlns="http://www.w3.org/2000/svg" xmlns:xlink="http://www.w3.org/1999/xlink">
    <!-- Generator: Sketch 52.5 (67469) - http://www.bohemiancoding.com/sketch -->
    <title>register</title>
    <desc>Created with Sketch.</desc>
    <defs>
        <path d="M10.2876511,0.54082409 C13.7062591,0.54082409 16.4874996,3.32206453 16.4874996,6.74067257 C16.4874996,9.05837293 15.2127644,11.0863608 13.3586041,12.1293259 C17.1248672,13.3461186 19.9061076,16.6488416 20.2537627,20.7627598 C20.3696477,21.8057249 18.3996024,21.8636674 18.3416599,20.8786448 C17.9360623,16.7647266 14.4015692,13.6358312 10.2876511,13.6358312 C6.11579044,13.6358312 2.63923989,16.7647266 2.23364232,20.8786448 C2.11775731,21.8636674 0.147711996,21.8057249 0.263597014,20.7627598 C0.669194578,16.7067841 3.45043502,13.3461186 7.1587556,12.1293259 C5.30459531,11.0863608 4.02986011,9.05837293 4.02986011,6.74067257 C4.02986011,3.32206453 6.86904305,0.54082409 10.2876511,0.54082409 Z M10.2876511,2.5108694 C7.91200822,2.5108694 5.99990542,4.4229722 5.99990542,6.74067257 C5.99990542,9.11631544 7.91200822,11.0284182 10.2876511,11.0284182 C12.6053515,11.0284182 14.5174543,9.11631544 14.5174543,6.74067257 C14.5174543,4.4229722 12.6053515,2.5108694 10.2876511,2.5108694 Z" id="path-1"></path>
    </defs>
    <g id="new" stroke="none" stroke-width="1" fill="none" fill-rule="evenodd">
        <g id="Certificate-issued" transform="translate(-1144.000000, -210.000000)" fill-rule="nonzero">
            <g id="Group-12" transform="translate(232.000000, 96.098312)">
                <g id="register" transform="translate(912.000000, 114.000000)">
                    <g id="Shape" transform="translate(10.258681, 11.061709) scale(-1, 1) translate(-10.258681, -11.061709) ">
                        <use fill="#2F45C7" xlink:href="#path-1"></use>
                        <use fill="#FFFFFF" xlink:href="#path-1"></use>
                    </g>
                    <path d="M21.5452736,6.24004651 L21.5452736,12.267083" id="Line-4" stroke="#FFFFFF"></path>
                    <path d="M24.6106293,9.25356478 L18.4799178,9.25356478 L24.6106293,9.25356478 Z" id="Line-4-Copy" stroke="#FFFFFF"></path>
                </g>
            </g>
        </g>
    </g>
</svg>