<?xml version="1.0" encoding="UTF-8"?>
<svg width="27px" height="29px" viewBox="0 0 27 29" version="1.1" xmlns="http://www.w3.org/2000/svg" xmlns:xlink="http://www.w3.org/1999/xlink">
    <!-- Generator: Sketch 52.5 (67469) - http://www.bohemiancoding.com/sketch -->
    <title>Shape</title>
    <desc>Created with Sketch.</desc>
    <g id="new" stroke="none" stroke-width="1" fill="none" fill-rule="evenodd">
        <g id="Print" transform="translate(-1101.000000, -36.000000)" fill="#FEFFFF" fill-rule="nonzero">
            <path d="M1122.0145,47.226857 C1124.86247,47.226857 1127.19263,44.8966957 1127.19263,42.0487207 C1127.19263,39.2007458 1124.86247,36.8705845 1122.0145,36.8705845 C1119.16652,36.8705845 1116.83636,39.2007458 1116.83636,42.0487207 C1116.83636,42.4555743 1116.87335,42.8254412 1116.98431,43.1953081 L1110.10478,46.8939769 C1109.2171,46.1912298 1108.1075,45.7473895 1106.84996,45.7473895 C1104.00198,45.7473895 1101.67182,48.0775509 1101.67182,50.9255258 C1101.67182,53.7735008 1104.00198,56.1036621 1106.84996,56.1036621 C1108.07052,56.1036621 1109.2171,55.6598219 1110.10478,54.9570748 L1116.98431,58.6557436 C1116.68841,59.9502777 1116.87335,61.2817984 1117.53911,62.391399 C1118.24186,63.5749731 1119.35146,64.4626536 1120.68298,64.7955338 C1121.12682,64.9064938 1121.57066,64.9804672 1122.0145,64.9804672 C1124.30767,64.9804672 1126.41591,63.464013 1127.0077,61.1338517 C1127.37757,59.8023309 1127.19263,58.3968368 1126.48989,57.2132628 C1125.78714,56.0296887 1124.67754,55.1420082 1123.34602,54.809128 C1121.01586,54.1803544 1118.64871,55.2529683 1117.50212,57.2502494 L1111.10342,53.8474742 C1111.65823,53.033767 1111.99111,51.9981398 1111.99111,50.9255258 C1111.99111,49.8529119 1111.65823,48.8542713 1111.10342,48.0035775 L1117.50212,44.6008022 C1118.3898,46.1542431 1120.09119,47.226857 1122.0145,47.226857 Z M1122.0145,38.350052 C1124.04877,38.350052 1125.71317,40.0144529 1125.71317,42.0487207 C1125.71317,44.0829886 1124.04877,45.7473895 1122.0145,45.7473895 C1119.98023,45.7473895 1118.31583,44.0829886 1118.31583,42.0487207 C1118.31583,40.0144529 1119.98023,38.350052 1122.0145,38.350052 Z M1118.42679,58.840677 C1118.87063,57.2132628 1120.38708,56.1036621 1122.0145,56.1036621 C1122.34738,56.1036621 1122.64327,56.1406488 1122.97615,56.2146222 C1123.93781,56.473529 1124.71453,57.065316 1125.23234,57.9529965 C1125.71317,58.8036903 1125.86111,59.8023309 1125.60221,60.7639848 C1125.08439,62.7242792 1123.05012,63.9078532 1121.08983,63.3900396 C1120.12818,63.1311328 1119.35146,62.5393458 1118.83364,61.6516653 C1118.31583,60.8009715 1118.16788,59.8023309 1118.42679,58.840677 Z M1106.84996,54.6241946 C1104.81569,54.6241946 1103.15129,52.9597937 1103.15129,50.9255258 C1103.15129,48.891258 1104.81569,47.226857 1106.84996,47.226857 C1108.88422,47.226857 1110.54862,48.891258 1110.54862,50.9255258 C1110.54862,52.9597937 1108.88422,54.6241946 1106.84996,54.6241946 Z" id="Shape"></path>
        </g>
    </g>
</svg>