<?xml version="1.0" encoding="UTF-8"?>
<svg width="26px" height="27px" viewBox="0 0 31 31" version="1.1" xmlns="http://www.w3.org/2000/svg" xmlns:xlink="http://www.w3.org/1999/xlink">
    <!-- Generator: Sketch 52.5 (67469) - http://www.bohemiancoding.com/sketch -->
    <title>Super Admin</title>
    <desc>Created with Sketch.</desc>
    <g id="Symbols" stroke="none" stroke-width="1" fill="none" fill-rule="evenodd">
        <g id="HEADER" transform="translate(-497.000000, -35.202920)">
            <g id="Super-Admin" transform="translate(497.000000, 35.000000)">
                <path d="M15.3263692,7.8828125 C15.6426582,7.8828125 15.9011153,7.63150391 15.9116035,7.3175 C15.9123067,7.31105469 15.9123067,7.30396484 15.9123067,7.296875 C15.9123067,6.9734375 15.6498067,6.7109375 15.3263692,6.7109375 C15.0029317,6.7109375 14.7404317,6.9734375 14.7404317,7.296875 C14.7404317,7.30396484 14.7404317,7.31105469 14.7411348,7.3175 C14.7516231,7.63150391 15.0100801,7.8828125 15.3263692,7.8828125 Z" id="Fill-1" fill="#FFFFFF"></path>
                <path d="M18.8419942,13.7421875 C18.8419942,11.8037891 17.265002,10.2265625 15.3263692,10.2265625 C13.3877363,10.2265625 11.8107442,11.8037891 11.8107442,13.7421875 C11.8107442,15.6808203 13.3877363,17.2578125 15.3263692,17.2578125 C17.265002,17.2578125 18.8419942,15.6808203 18.8419942,13.7421875 Z M15.3263692,16.0859375 C14.034084,16.0859375 12.9826192,15.0344727 12.9826192,13.7421875 C12.9826192,12.4499023 14.034084,11.3984375 15.3263692,11.3984375 C16.6186543,11.3984375 17.6701192,12.4499023 17.6701192,13.7421875 C17.6701192,15.0344727 16.6186543,16.0859375 15.3263692,16.0859375 Z" id="Fill-2" fill="#FFFFFF"></path>
                <path d="M29.855334,13.1676758 L27.2987129,12.6566211 C26.9981856,11.3920508 26.4967403,10.1819141 25.803459,9.04941406 L27.3491035,6.77755859 C27.5072481,6.54476562 27.4779512,6.23257813 27.2790254,6.03365234 L24.7928926,3.54757813 C24.593791,3.34841797 24.2816035,3.31912109 24.0488106,3.47726563 C23.5187129,3.83802734 22.3384004,4.6409375 21.7714473,5.02613281 C20.6476192,4.33191406 19.4391231,3.8290625 18.1697481,3.52765625 L17.6586934,0.971035156 C17.6039668,0.697285156 17.3636738,0.5 17.0841817,0.5 L13.5685567,0.5 C13.2892988,0.5 13.0487715,0.697285156 12.9940449,0.971035156 L12.4829903,3.52765625 C11.2131465,3.82929687 10.0048848,4.33214844 8.88152541,5.02660156 C8.34521682,4.66197266 7.2550801,3.92041016 6.60392775,3.47726563 C6.37113479,3.31912109 6.05894729,3.34865234 5.85984572,3.54757813 L3.37371291,6.03365234 C3.17478713,6.23257813 3.14525588,6.545 3.30363479,6.77755859 L4.84927932,9.04941406 C4.15599807,10.1819141 3.65431838,11.3920508 3.35402541,12.6566211 L0.797404317,13.1676758 C0.523419942,13.2224023 0.326369161,13.4629297 0.326369161,13.7421875 L0.326369161,17.2578125 C0.326369161,17.5370703 0.523419942,17.7775977 0.797404317,17.8323242 L3.35402541,18.3433789 C3.65566604,19.613457 4.1585176,20.8217187 4.85297072,21.9450781 C4.48834182,22.4811523 3.74654494,23.5712891 3.30363479,24.2226758 C3.14525588,24.4552344 3.17478713,24.7674219 3.37371291,24.9665234 L5.85984572,27.4526563 C6.05894729,27.651582 6.37113479,27.6811133 6.60392775,27.5227344 L8.87554885,25.9770898 C10.0082832,26.6706055 11.2186543,27.1720508 12.4829903,27.4723438 L12.9940449,30.0289648 C13.0487715,30.3029492 13.2892988,30.5 13.5685567,30.5 L17.0841817,30.5 C17.3636738,30.5 17.6039668,30.3029492 17.6586934,30.0289648 L18.1697481,27.4723438 C19.4393574,27.1709375 20.6478535,26.6680859 21.7714473,25.9733984 C22.3075215,26.3380273 23.3978926,27.0795898 24.0490449,27.5227344 C24.2816035,27.6808789 24.593791,27.651582 24.7928926,27.4526563 L27.2790254,24.9663477 C27.4779512,24.7674219 27.5074824,24.4552344 27.3491035,24.2224414 C26.9061934,23.5712891 26.1643965,22.4811523 25.7997676,21.9448437 C26.4944551,20.8214844 26.997541,19.6129883 27.2987129,18.3433789 L29.855334,17.8323242 C30.1293184,17.7775977 30.3263692,17.5370703 30.3263692,17.2578125 L30.3263692,13.7421875 C30.3263692,13.4629297 30.1293184,13.2224023 29.855334,13.1676758 Z M29.1544942,16.7774023 L26.6942598,17.2692383 C26.4628145,17.3154688 26.2818184,17.4958203 26.2348848,17.7267969 C25.9517598,19.1163477 25.4049629,20.4301367 24.6096113,21.6313086 C24.483459,21.8215039 24.4793574,22.0680078 24.5992988,22.2623047 C24.6082051,22.2769531 24.6104903,22.2806445 26.1073848,24.4808398 L24.3070332,26.2810156 C22.1067793,24.7843555 22.1033223,24.7820703 22.0884395,24.7729297 C21.894377,24.6532227 21.6481074,24.6570898 21.4574434,24.7832422 C20.2562715,25.5785937 18.9427168,26.125625 17.553166,26.4085156 C17.3220137,26.4556836 17.1416035,26.6366797 17.0953731,26.8678906 L16.6037715,29.328125 L14.0489668,29.328125 L13.5571309,26.8678906 C13.5109004,26.6366797 13.3305488,26.4554492 13.0995723,26.4085156 C11.7167012,26.1267383 10.3996895,25.5808789 9.18480666,24.7861719 C8.98681838,24.6566211 8.73023635,24.6587305 8.53453322,24.7919141 L6.34552932,26.2810156 L4.54535354,24.4808398 C6.04224807,22.2804102 6.04429885,22.2769531 6.05343947,22.2623047 C6.1731465,22.0677734 6.16927932,21.8215039 6.04312697,21.6310742 C5.24777541,20.4303711 4.70097854,19.1168164 4.41785354,17.7267969 C4.37068557,17.4956445 4.18968947,17.3154688 3.95847854,17.2692383 L1.49824416,16.7774023 L1.49824416,14.2225977 L3.95847854,13.7307617 C4.18992385,13.6845313 4.37068557,13.5043555 4.41785354,13.2732031 C4.69986525,11.8900977 5.24549025,10.5728516 6.04043166,9.3584375 C6.16992385,9.16044922 6.16763869,8.90386719 6.0344551,8.70792969 L4.54535354,6.51916016 L6.3457051,4.71898438 C8.545959,6.21564453 8.54941604,6.21792969 8.56429885,6.22707031 C8.75859572,6.34677734 9.00486525,6.34291016 9.19506057,6.21675781 C10.3962324,5.42164062 11.7097871,4.87460937 13.0995723,4.59148437 C13.3307246,4.54431641 13.5111348,4.36332031 13.5573653,4.13210937 L14.0489668,1.671875 L16.6037715,1.671875 L17.0956074,4.13234375 C17.1418379,4.36355469 17.3221895,4.54455078 17.553166,4.59148437 C18.9424824,4.87460937 20.2560371,5.42117187 21.4579121,6.21634766 C21.6382637,6.33582031 21.8698848,6.34607422 22.0600801,6.243125 C22.0918965,6.22595703 22.0939473,6.22478516 24.307209,4.71898438 L26.1073848,6.51933594 L24.6185176,8.70816406 C24.4852754,8.90386719 24.4828145,9.16044922 24.612541,9.35867187 C25.4072481,10.5730859 25.9531074,11.890332 26.2348848,13.2734375 C26.2820528,13.5043555 26.4630488,13.6847656 26.6942598,13.7309961 L29.1544942,14.222832 L29.1544942,16.7774023 Z" id="Fill-4" fill="#B0BBFB"></path>
                <path d="M17.8007832,7.06572266 C17.4885957,6.98058594 17.1665645,7.16457031 17.0814278,7.47675781 C16.996291,7.78894531 17.180334,8.11103516 17.4925215,8.19617187 C20.1349238,8.916875 22.9435567,11.7216406 22.9435567,15.5 C22.9435567,17.7441992 21.9678535,19.7645117 20.4185176,21.1598047 C19.8115449,18.9044141 17.7463496,17.2578125 15.3263692,17.2578125 C12.9066231,17.2578125 10.8416621,18.9041797 10.2344551,21.1591016 C8.54759963,19.6457422 7.61121291,17.4780078 7.717209,15.1456836 C7.87857619,11.8804883 10.0689278,9.08697266 13.1682442,8.19388672 C13.4793184,8.10435547 13.6587324,7.77957031 13.5690254,7.46878906 C13.4793184,7.15771484 13.1547676,6.97824219 12.8439278,7.06800781 C9.42691604,8.05244141 6.73916213,11.1938281 6.54668166,15.0903125 C6.31254104,20.2394727 10.4598653,24.2890625 15.3263692,24.2890625 C20.1667403,24.2890625 24.1154317,20.3868359 24.1154317,15.5 C24.1154317,11.4286719 21.2473262,8.00550781 17.8007832,7.06572266 Z M11.2685176,21.9386914 C11.556916,19.9460352 13.2781074,18.4296875 15.3263692,18.4296875 C17.3762129,18.4296875 19.0983418,19.9483203 19.3849238,21.9430273 C18.2091231,22.6864063 16.8172871,23.1171875 15.3263692,23.1171875 C13.8873653,23.1171875 12.4770137,22.6992383 11.2685176,21.9386914 Z" id="Fill-6" fill="#FFFFFF"></path>
            </g>
        </g>
    </g>
</svg>