<?xml version="1.0" encoding="UTF-8"?>
<svg width="25px" height="23px" viewBox="0 0 25 23" version="1.1" xmlns="http://www.w3.org/2000/svg" xmlns:xlink="http://www.w3.org/1999/xlink">
    <title>Wallet</title>
    <g id="new" stroke="none" stroke-width="1" fill="none" fill-rule="evenodd" stroke-linecap="round">
        <g id="Dashboard" transform="translate(-101.000000, -646.000000)" stroke="#4A5B75" stroke-width="1.4">
            <g id="Group-2-Copy" transform="translate(101.480146, 646.333823)">
                <path d="M12.0212279,2.76852947 L3.03095812,2.76852947 C1.84032756,2.76852947 0.871678966,3.73717807 0.871678966,4.92780862 L0.871678966,19.7736936 C0.871678966,20.9643242 1.84032756,21.9329728 3.03095812,21.9329728 L19.9284946,21.9329728 C21.1191252,21.9329728 22.0877738,20.9643242 22.0877738,19.7736936 L22.0877738,15.414775 L23.1707767,15.414775 L23.1707767,9.89885938 L22.0877738,9.89885938 L22.0877738,4.92780862 C22.0877738,3.73717807 21.1191252,2.76852947 19.9284946,2.76852947 L17.9104767,2.76852947" id="Path"></path>
                <path d="M19.61465,6.21425183 L16.9456656,1.25645028 C16.6687511,0.745462146 16.0442206,0.562966383 15.5552014,0.842793219 L6.18724289,6.21425183 L19.61465,6.21425183 Z" id="Path" stroke-linejoin="round"></path>
                <path d="M23.1707767,15.4013215 L22.8546206,15.4013215 L17.0023687,15.4013215 C15.5628493,15.4013215 14.3856722,14.2308711 14.3856722,12.784625 L14.3856722,12.5155559 C14.3856722,11.0760365 15.5561225,9.89885938 17.0023687,9.89885938 L22.8546206,9.89885938 L23.1707767,9.89885938 L23.1707767,15.4013215 Z" id="Path"></path>
                <path d="M18.2163202,12.6568172 C18.2163202,12.8728502 18.0390623,13.0501081 17.8230293,13.0501081 C17.6069963,13.0501081 17.4297384,12.8728502 17.4297384,12.6568172 C17.4297384,12.4407842 17.6069963,12.2635263 17.8230293,12.2635263 C18.0390623,12.2635263 18.2163202,12.4380145 18.2163202,12.6568172 Z" id="Path" fill="#4A5B75" transform="translate(17.823029, 12.656817) scale(-1, 1) translate(-17.823029, -12.656817) "></path>
                <path d="M3.72747836,6.47118065 L22.0205065,6.47118065" id="Path"></path>
            </g>
        </g>
    </g>
</svg>